<mxfile host="app.diagrams.net" agent="Mozilla/5.0 (Windows NT 10.0; Win64; x64) AppleWebKit/537.36 (KHTML, like Gecko) Chrome/138.0.0.0 Safari/537.36" version="28.1.2">
  <diagram name="第 1 页" id="ULTU1I77-TE1EYv6J3k7">
    <mxGraphModel dx="1130" dy="619" grid="1" gridSize="10" guides="1" tooltips="1" connect="1" arrows="1" fold="1" page="1" pageScale="1" pageWidth="827" pageHeight="1169" math="0" shadow="0">
      <root>
        <mxCell id="0" />
        <mxCell id="1" parent="0" />
        <mxCell id="GyntzlskG0UPcChYsorm-4" style="edgeStyle=orthogonalEdgeStyle;rounded=0;orthogonalLoop=1;jettySize=auto;html=1;exitX=0.5;exitY=1;exitDx=0;exitDy=0;entryX=0.5;entryY=0;entryDx=0;entryDy=0;" edge="1" parent="1" source="GyntzlskG0UPcChYsorm-1" target="GyntzlskG0UPcChYsorm-2">
          <mxGeometry relative="1" as="geometry" />
        </mxCell>
        <mxCell id="GyntzlskG0UPcChYsorm-1" value="dataHandle" style="rounded=0;whiteSpace=wrap;html=1;" vertex="1" parent="1">
          <mxGeometry x="240" y="350" width="120" height="60" as="geometry" />
        </mxCell>
        <mxCell id="GyntzlskG0UPcChYsorm-2" value="onFrame" style="whiteSpace=wrap;html=1;" vertex="1" parent="1">
          <mxGeometry x="80" y="470" width="120" height="60" as="geometry" />
        </mxCell>
        <mxCell id="GyntzlskG0UPcChYsorm-6" style="edgeStyle=orthogonalEdgeStyle;rounded=0;orthogonalLoop=1;jettySize=auto;html=1;exitX=0.5;exitY=1;exitDx=0;exitDy=0;entryX=0.5;entryY=0;entryDx=0;entryDy=0;" edge="1" parent="1" source="GyntzlskG0UPcChYsorm-5" target="GyntzlskG0UPcChYsorm-1">
          <mxGeometry relative="1" as="geometry" />
        </mxCell>
        <mxCell id="GyntzlskG0UPcChYsorm-5" value="start" style="rhombus;whiteSpace=wrap;html=1;" vertex="1" parent="1">
          <mxGeometry x="225" y="200" width="150" height="80" as="geometry" />
        </mxCell>
      </root>
    </mxGraphModel>
  </diagram>
</mxfile>
